# xmcd
#
# Track frame offsets: 
#        187
#        17190
#        33577
#        50810
#        64300
#        86455
#        107675
#        126575
#
# Disc length: 1931 seconds
#
# Revision: 0
# Processed by: cddbd v1.4PL0 Copyright (c) Steve Scherf et al.
# Submitted via: ExactAudioCopy v0.90a11
#
DISCID=72078908
DTITLE=Billy Price and The Keystone Rhythm Band - Free At Last
DYEAR=1900
DGENRE=
TTITLE0=Slipped, Tripped And Fell In Love
TTITLE1=Who You're Workin' For
TTITLE2=Real Time
TTITLE3=I'm Gonna Win The War
TTITLE4=Still Ain't Had Enough
TTITLE5=Free
TTITLE6=Livin' With A Stranger
TTITLE7=Absolute Love
EXTD=
EXTT0=
EXTT1=
EXTT2=
EXTT3=
EXTT4=
EXTT5=
EXTT6=
EXTT7=
PLAYORDER=
